<svg width="50" height="50" viewBox="0 0 50 50" fill="none" xmlns="http://www.w3.org/2000/svg">
<path d="M47.2096 48.6237C47.6001 49.0142 48.2333 49.0142 48.6238 48.6237C49.0143 48.2332 49.0143 47.6 48.6238 47.2095L47.2096 48.6237ZM38.8285 20.9558C38.8285 30.8265 30.8267 38.8284 20.9559 38.8284V40.8284C31.9312 40.8284 40.8285 31.9311 40.8285 20.9558H38.8285ZM20.9559 38.8284C11.0852 38.8284 3.08337 30.8265 3.08337 20.9558H1.08337C1.08337 31.9311 9.98062 40.8284 20.9559 40.8284V38.8284ZM3.08337 20.9558C3.08337 11.0851 11.0852 3.08325 20.9559 3.08325V1.08325C9.98062 1.08325 1.08337 9.9805 1.08337 20.9558H3.08337ZM20.9559 3.08325C30.8267 3.08325 38.8285 11.0851 38.8285 20.9558H40.8285C40.8285 9.9805 31.9312 1.08325 20.9559 1.08325V3.08325ZM33.7292 35.1433L47.2096 48.6237L48.6238 47.2095L35.1434 33.7291L33.7292 35.1433Z" fill="#2E3646"/>
</svg>
