<svg width="100" height="94" viewBox="0 0 100 94" fill="none" xmlns="http://www.w3.org/2000/svg">
<path d="M61.3958 34.2453L51.7326 14.7406C51.0506 13.3641 48.9494 13.3641 48.2674 14.7406L38.6042 34.2453C38.3263 34.8063 37.7552 35.1926 37.0962 35.2654L14.1857 37.7944C12.5688 37.9729 11.9195 39.8335 13.1149 40.8627L30.0532 55.4463C30.5404 55.8657 30.7586 56.4907 30.6292 57.0967L26.1329 78.1644C25.8156 79.6512 27.5156 80.8011 28.9363 80.0607L49.068 69.5692C49.6471 69.2674 50.3529 69.2674 50.932 69.5692L71.0636 80.0607C72.4844 80.8011 74.1844 79.6512 73.8671 78.1644L69.3708 57.0967C69.2414 56.4907 69.4596 55.8657 69.9468 55.4463L86.8851 40.8627C88.0805 39.8335 87.4311 37.9729 85.8143 37.7944L62.9038 35.2654C62.2448 35.1926 61.6737 34.8063 61.3958 34.2453Z" fill="#FFC836"/>
</svg>
